<svg xmlns="http://www.w3.org/2000/svg" viewBox="0 0 217.66 108.28"><title>Asset 1</title><g id="Layer_2" data-name="Layer 2"><g id="Layer_1-2" data-name="Layer 1"><path d="M81.75,2.84A3.65,3.65,0,0,1,85.58,0h4.69A3.65,3.65,0,0,1,94.1,2.84l34.37,92.87c.75,2.74-.19,4.12-2.84,4.12H122.5a3.73,3.73,0,0,1-4-2.84L107.88,68h-40L57.32,97a3.73,3.73,0,0,1-4,2.84h-3c-2.75,0-3.74-1.38-3-4.12ZM107.88,68,92.49,25.55A32.22,32.22,0,0,1,91,20.88c-.44-1.77-.88-3.44-1.32-5-.45-1.89-.94-3.78-1.49-5.67h-.33c-.56,1.89-1,3.78-1.49,5.67-.45,1.55-.94,3.22-1.49,5s-1,3.33-1.49,4.67L67.83,68ZM127.05,3.27A3.18,3.18,0,0,1,130.6,0h3.83a4,4,0,0,1,4.12,2.7l25,56c.57,1.32,1.14,2.69,1.7,4.11s1.09,2.75,1.57,4c.56,1.42,1.13,2.79,1.7,4.12h.28c.48-1.33,1-2.7,1.57-4.12.47-1.23,1-2.56,1.56-4s1.13-2.79,1.7-4.11l25-55.95A4.29,4.29,0,0,1,202.73,0h3.84a3.19,3.19,0,0,1,3.55,3.27l7.52,92.86c.19,2.47-.94,3.7-3.41,3.7h-2.84a3.19,3.19,0,0,1-3.55-3.27L202.59,30a37.59,37.59,0,0,1-.35-4.4c-.05-1.61-.08-3.12-.08-4.54v-5h-.28q-.85,2.55-1.7,5.11c-.48,1.42-1,2.91-1.64,4.47s-1.2,3-1.77,4.33L174.33,78.53a3.87,3.87,0,0,1-4,2.69H167a4,4,0,0,1-4.12-2.69L140.54,30q-.85-1.84-1.78-4.26T137.13,21q-.85-2.57-1.85-5.26H135v5.11c0,1.42-.05,3-.14,4.62s-.19,3.15-.29,4.47l-5.25,66.6a3.18,3.18,0,0,1-3.55,3.27h-2.84q-3.69,0-3.41-3.7Z"/><path d="M32.52,44.69c15.24,0,22.8,8.88,22.8,8.88L49.8,61.73a24.59,24.59,0,0,0-16.8-7c-12.24,0-21.12,9.12-21.12,21.6S20.76,98.2,33.36,98.2C44.64,98.2,52.08,90,52.08,90l4.68,8.52s-8.4,9.72-24.24,9.72C13.44,108.28,0,94.72,0,76.49,0,58.49,13.44,44.69,32.52,44.69ZM53.25,59a3.75,3.75,0,0,1-4,2.84h-3q-4.12,0-3-4.12L62.75,2.94A3.66,3.66,0,0,1,66.59.1h4.68c2,0,4.6.86,3.84,2.84"/><path d="M51.42,56.9V33.14L32.54.1H44.22L53.1,16.82c1.84,3.52,3.36,7.68,3.44,7.6h.16"/></g></g></svg>